<?xml version="1.0" encoding="UTF-8"?>
<svg version="1.1" xmlns="http://www.w3.org/2000/svg" width="512" height="512">
<path d="M0 0 C7.15685304 3.37975524 13.38778679 3.59783193 21.19921875 3.484375 C41.93396144 3.71143605 57.39002947 8.45712279 72.82421875 22.859375 C74.53120238 24.77973158 76.21890376 26.71740431 77.88671875 28.671875 C82.47018729 33.8535006 86.30036265 35.89652876 92.82421875 37.859375 C107.80621448 43.19097807 119.67915803 49.58602581 130.82421875 60.859375 C131.93603516 61.95572266 131.93603516 61.95572266 133.0703125 63.07421875 C141.06977067 71.44792058 145.98831237 81.65746063 150.38671875 92.234375 C154.37302966 101.71630048 159.53752387 107.04513623 167.6328125 113.16796875 C180.58849958 123.16763453 187.66946973 137.87502549 190.4296875 153.765625 C191.82429909 164.70158913 192.0641094 175.53648362 192.07421875 186.546875 C192.07555817 187.40876434 192.07689758 188.27065369 192.07827759 189.15866089 C192.07354008 203.24851366 191.28911808 216.96129128 188.82421875 230.859375 C188.70675293 231.56755371 188.58928711 232.27573242 188.46826172 233.00537109 C185.26446108 252.018319 176.0370604 269.83174809 160.3984375 281.515625 C152.33367149 287.25386387 152.33367149 287.25386387 148.09765625 288.953125 C144.30093477 292.13663029 144.18084875 296.58093824 143.32421875 301.296875 C139.73604695 318.7657915 132.47619758 334.24469611 120.82421875 347.859375 C120.14746094 348.66890625 119.47070312 349.4784375 118.7734375 350.3125 C101.48470489 370.33426494 79.54440183 379.87198567 53.82421875 383.859375 C53.16421875 383.859375 52.50421875 383.859375 51.82421875 383.859375 C52.04356079 385.49181152 52.04356079 385.49181152 52.26733398 387.15722656 C52.81639546 391.2496024 53.36150932 395.3424965 53.90551758 399.43554688 C54.14014166 401.19675518 54.37579299 402.95782699 54.61254883 404.71875 C54.95543599 407.27046838 55.29445085 409.82267804 55.6328125 412.375 C55.73702011 413.14426819 55.84122772 413.91353638 55.94859314 414.70611572 C56.78964728 421.09533283 57.28701168 427.41289017 57.82421875 433.859375 C28.12421875 433.859375 -1.57578125 433.859375 -32.17578125 433.859375 C-35.03321203 423.14400956 -37.00122209 413.71879784 -37.953125 402.89257812 C-39.7488055 385.21288427 -49.94412907 372.12193811 -63.17578125 360.859375 C-74.23753177 352.15836392 -87.27460011 346.23656178 -101.46484375 345.5 C-126.44597438 344.00426646 -147.3771937 338.76479492 -167.17578125 322.859375 C-168.15611328 322.08980469 -168.15611328 322.08980469 -169.15625 321.3046875 C-177.60272813 314.40579808 -185.20392195 305.26030272 -189.80078125 295.359375 C-191.58062929 292.12328765 -192.67103407 291.91566481 -196.17578125 290.859375 C-198.80191154 290.60741108 -201.34648015 290.44436383 -203.9765625 290.3671875 C-205.52801229 290.30119129 -207.07944406 290.23477042 -208.63085938 290.16796875 C-211.04126835 290.07426164 -213.4516392 289.98558824 -215.86254883 289.90576172 C-227.12848388 289.51554889 -237.36389723 288.08273614 -248.17578125 284.859375 C-249.00263428 284.61413086 -249.8294873 284.36888672 -250.68139648 284.11621094 C-267.12440071 278.90223775 -280.13611512 270.05016665 -292.17578125 257.859375 C-293.20638672 256.82683594 -293.20638672 256.82683594 -294.2578125 255.7734375 C-302.19920529 247.27632648 -308.0186107 236.4933829 -312.38427734 225.77978516 C-312.94056139 224.43008427 -313.51842941 223.08917629 -314.11181641 221.75537109 C-323.66818964 199.94119303 -323.34047746 173.44783786 -315.09960938 151.19482422 C-311.10750917 141.10274427 -305.91908005 132.27065275 -299.75805664 123.3659668 C-294.90426036 116.22703374 -291.9289562 108.55441007 -288.9140625 100.48046875 C-280.63681583 78.36429231 -268.29101199 63.74710194 -246.8203125 53.40234375 C-239.92434944 50.48283099 -232.71950112 47.859375 -225.17578125 47.859375 C-224.94375 47.29734375 -224.71171875 46.7353125 -224.47265625 46.15625 C-217.67032775 34.10875253 -201.39419224 26.44703887 -188.796875 22.55078125 C-187.49943359 22.20853516 -187.49943359 22.20853516 -186.17578125 21.859375 C-185.43199219 21.65957031 -184.68820313 21.45976563 -183.921875 21.25390625 C-181.45790674 20.89990796 -179.31752845 20.86190253 -176.83984375 20.9296875 C-165.09834872 21.15298985 -158.83317584 19.27166386 -149.88671875 11.7890625 C-136.01419503 0.30192706 -116.05334776 -4.29622108 -98.48828125 -4.453125 C-97.10733276 -4.47052734 -97.10733276 -4.47052734 -95.69848633 -4.48828125 C-90.08309667 -4.4575882 -85.18391613 -3.78427283 -79.77954102 -2.30053711 C-69.07022434 0.62431719 -62.24222078 -1.15452835 -51.96875 -5.06323242 C-34.43070065 -11.63576332 -16.46851436 -8.42185417 0 0 Z M-59.1628418 18.93798828 C-65.36146666 21.77529698 -72.94831237 19.41522099 -79.23828125 17.859375 C-99.00099208 13.41300714 -117.28190444 16.00368568 -134.50976562 26.72558594 C-137.99841988 29.09975217 -141.03756347 31.91535211 -144.02734375 34.87890625 C-148.78120722 39.26110403 -153.15429849 41.06005322 -159.5546875 40.8515625 C-173.12286049 40.48791579 -173.12286049 40.48791579 -186.17578125 43.859375 C-186.85125 44.11460938 -187.52671875 44.36984375 -188.22265625 44.6328125 C-196.81201458 48.37777273 -204.22205913 55.3845372 -210.34765625 62.3515625 C-214.93552477 66.13557372 -220.82509062 67.38286383 -226.48828125 68.734375 C-238.05113261 71.70231112 -245.72163002 76.43462951 -254.17578125 84.859375 C-254.74167969 85.40207031 -255.30757812 85.94476563 -255.890625 86.50390625 C-261.13020224 91.99364899 -264.09995203 99.01864045 -267.17578125 105.859375 C-267.51383789 106.59784668 -267.85189453 107.33631836 -268.20019531 108.09716797 C-273.71217697 119.27814229 -273.71217697 119.27814229 -273.37890625 131.2265625 C-272.981875 132.09539062 -272.58484375 132.96421875 -272.17578125 133.859375 C-271.90185547 134.47586914 -271.62792969 135.09236328 -271.34570312 135.72753906 C-265.16176675 149.95062429 -265.16176675 149.95062429 -253.03515625 158.77734375 C-251.92914063 159.18919922 -251.92914063 159.18919922 -250.80078125 159.609375 C-250.07117188 159.89941406 -249.3415625 160.18945312 -248.58984375 160.48828125 C-240.22753428 163.75854156 -232.22224505 166.34364511 -223.17578125 164.859375 C-219.68654747 163.26030901 -216.51451105 161.45597806 -213.28125 159.390625 C-209.66414339 157.6070957 -207.15774737 157.57958817 -203.17578125 157.859375 C-200.80539938 161.56309667 -200.6790357 164.53059236 -201.17578125 168.859375 C-203.52864211 175.47992499 -208.11213405 180.00147781 -213.07519531 184.76147461 C-219.61827043 191.09660359 -225.03423731 198.09915195 -225.265625 207.515625 C-225.16405836 210.07822937 -225.05989137 212.640732 -224.953125 215.203125 C-225.1959723 219.19093334 -226.10123843 221.47751688 -228.17578125 224.859375 C-231.52449111 227.49050418 -235.05566189 227.22078898 -239.17578125 226.859375 C-241.98828125 225.859375 -241.98828125 225.859375 -244.17578125 223.859375 C-248.73565147 212.35113112 -246.30451717 200.08489394 -242.17578125 188.859375 C-241.84578125 187.869375 -241.51578125 186.879375 -241.17578125 185.859375 C-241.75432861 185.67874512 -242.33287598 185.49811523 -242.92895508 185.31201172 C-262.55270214 179.1306583 -277.05582225 173.68634161 -287.28515625 154.8125 C-287.94334449 153.50854217 -288.56595686 152.18663986 -289.17578125 150.859375 C-289.83578125 150.859375 -290.49578125 150.859375 -291.17578125 150.859375 C-297.19556545 164.17974855 -303.03220424 182.29010604 -298.17578125 196.859375 C-297.51578125 196.859375 -296.85578125 196.859375 -296.17578125 196.859375 C-296.08103516 197.66375 -296.08103516 197.66375 -295.984375 198.484375 C-292.84005303 218.60803562 -280.06961426 237.70523173 -264.08203125 249.91796875 C-258.09398857 253.91804565 -251.78053233 257.01499315 -245.17578125 259.859375 C-244.55977051 260.13475098 -243.94375977 260.41012695 -243.30908203 260.69384766 C-228.56259216 267.01490419 -211.87321435 265.32626122 -196.17578125 264.859375 C-196.13026123 263.75464844 -196.08474121 262.64992188 -196.0378418 261.51171875 C-195.17567992 242.23787887 -189.96143396 228.34034011 -175.6953125 214.96484375 C-167.94748458 207.98685274 -159.3842014 202.32113589 -150.30078125 197.234375 C-149.70668457 196.89108154 -149.11258789 196.54778809 -148.50048828 196.1940918 C-143.78669677 193.6784516 -140.37456551 193.49743432 -135.17578125 193.859375 C-132.56217882 194.68472314 -131.58103403 195.33254638 -129.92578125 197.484375 C-128.8397331 200.92352747 -128.40209816 204.33846126 -129.17578125 207.859375 C-131.8220543 211.9305643 -134.33880868 213.7328265 -138.73828125 215.671875 C-151.71433588 221.86069717 -166.91359641 232.46222695 -173.17578125 245.859375 C-176.32266944 256.31270602 -177.23398534 268.63304461 -172.3671875 278.671875 C-171.77744141 279.7546875 -171.77744141 279.7546875 -171.17578125 280.859375 C-170.81355469 281.601875 -170.45132813 282.344375 -170.078125 283.109375 C-161.24866515 300.34926949 -145.61198493 312.10689928 -127.390625 318.10546875 C-117.80687334 320.7804706 -108.07738981 321.56004034 -98.16870117 322.08911133 C-75.88230432 323.40847745 -57.41345591 334.21705734 -41.17578125 348.859375 C-40.49644531 349.45492188 -39.81710937 350.05046875 -39.1171875 350.6640625 C-21.57473715 366.95058684 -16.60325288 387.79839447 -14.17578125 410.859375 C1.66421875 410.859375 17.50421875 410.859375 33.82421875 410.859375 C33.15224974 399.49648931 33.15224974 399.49648931 31.76171875 388.359375 C30.52266814 380.76227634 30.03057202 374.79259144 33.82421875 367.859375 C38.11004837 362.9038845 43.67626751 362.76175925 49.82421875 361.859375 C73.5021355 358.19552893 93.91759872 349.38934934 108.86621094 329.85791016 C117.74325985 317.64088012 122.35208494 305.55778431 125.13989258 290.80297852 C126.55878622 283.35553902 126.55878622 283.35553902 128.52734375 279.67578125 C132.43347065 271.19289724 125.70372911 258.44066712 122.73974609 250.27294922 C115.16202714 230.29606134 97.50613438 220.64383246 79.55102539 211.08227539 C78.81875732 210.68903076 78.08648926 210.29578613 77.33203125 209.890625 C76.6786377 209.54580078 76.02524414 209.20097656 75.35205078 208.84570312 C73.82421875 207.859375 73.82421875 207.859375 72.82421875 205.859375 C72.19235295 200.75931533 71.96272972 197.06545964 75.01171875 192.796875 C77.8935603 190.81160638 79.405765 190.24549553 82.82421875 189.859375 C96.37216766 192.81438049 110.28495954 203.30198815 120.82421875 211.859375 C121.64664062 212.50519531 122.4690625 213.15101563 123.31640625 213.81640625 C137.78793604 225.77856303 143.34942658 244.56136143 148.82421875 261.859375 C163.85461676 249.40170123 168.01526703 235.27403635 170.01171875 216.296875 C171.61743859 199.02820409 171.55824149 181.44243099 170.01171875 164.171875 C169.90682129 162.96337891 169.90682129 162.96337891 169.79980469 161.73046875 C168.97359006 153.90940913 167.1318917 146.24681639 162.88671875 139.546875 C162.40332031 138.76699219 161.91992188 137.98710937 161.421875 137.18359375 C157.98890191 132.1894153 154.42553989 128.63169037 149.51171875 125.109375 C139.23307839 117.3950435 134.2772339 108.23021253 128.78857422 96.85644531 C120.1742006 79.01705893 109.22592996 66.59852787 90.3203125 59.67578125 C88.50577789 59.08229497 86.68444104 58.50948277 84.859375 57.94921875 C72.97238035 54.24671222 65.85293573 48.27596341 57.40307617 39.32885742 C52.15443743 33.85648558 46.49944085 29.34132773 39.13671875 27.109375 C38.43160156 26.88765625 37.72648437 26.6659375 37 26.4375 C30.98133711 24.83828616 25.21290732 24.54120776 19.01171875 24.421875 C18.05201172 24.37611328 17.09230469 24.33035156 16.10351562 24.28320312 C8.8319184 24.16904153 5.09117455 25.946215 -0.17578125 30.859375 C-1.11393677 31.64586426 -1.11393677 31.64586426 -2.07104492 32.44824219 C-8.55709154 37.93796974 -13.44133259 47.54632532 -15.17578125 55.859375 C-15.36730721 59.4309794 -15.51953414 62.99677206 -15.60546875 66.57226562 C-15.79716477 71.11306519 -16.26268493 74.16623157 -19.17578125 77.859375 C-22.87875669 80.32802529 -25.88029156 80.42038437 -30.17578125 79.859375 C-34.74522569 77.72048611 -34.74522569 77.72048611 -36.17578125 74.859375 C-39.34933535 54.24730143 -33.37333141 36.94809562 -21.39453125 20.3984375 C-20.00846898 18.53509907 -18.60656846 16.68847659 -17.17578125 14.859375 C-32.27955709 10.49952218 -45.11194998 11.31090387 -59.1628418 18.93798828 Z " fill="#427CFE" transform="translate(320.17578125,43.140625)"/>
<path d="M0 0 C4.50749596 4.1284378 4.89310488 8.5697229 5.75 14.3125 C8.46638947 29.71146319 14.91876186 43.28724552 27.59375 52.984375 C43.16252021 63.45303083 61.34617115 68.27701448 79.875 64.875 C91.35193027 62.19870932 100.24430799 56.74656141 109 49 C109.69867188 48.43023437 110.39734375 47.86046875 111.1171875 47.2734375 C119.8142055 39.59163561 124.37529072 27.57843158 128.11328125 16.8203125 C129 15 129 15 132 13 C136.02035732 12.55329363 138.29621811 12.61750984 141.875 14.5625 C143.99096644 16.98963798 144.96762529 18.60356282 145.1875 21.83984375 C143.79437675 37.88978457 131.23070226 55.14187944 119.3125 65.1875 C104.59199412 76.31931113 89.89392609 81.27204832 71.79663086 83.67456055 C69.90547386 83.93033332 69.90547386 83.93033332 68 85 C68.39832031 85.680625 68.79664063 86.36125 69.20703125 87.0625 C74.54918767 96.83695652 77.69284647 107.73721662 77 119 C75.4375 122.3125 75.4375 122.3125 73 125 C69.5625 126.125 69.5625 126.125 66 126 C62.24905952 123.82603149 61.15425444 122.49361421 59.84765625 118.3125 C59.57163274 116.87767807 59.31056463 115.43991906 59.0625 114 C56.41453736 100.99370791 51.25063832 90.22699735 40 82.5625 C39.43821045 82.17908447 38.8764209 81.79566895 38.29760742 81.40063477 C34.42859583 78.81178313 30.44878887 76.58151719 26.3125 74.4375 C20.23817408 71.26478212 15.11959356 67.539675 10 63 C9.04673828 62.17048828 9.04673828 62.17048828 8.07421875 61.32421875 C-5.20046059 48.99142353 -12.88963614 29.22458297 -13.5625 11.375 C-13.413638 7.13003207 -13.19658476 5.33173679 -11 1.625 C-6.79691034 -0.65167357 -4.74872357 -0.75376565 0 0 Z " fill="#61F6DD" transform="translate(243,162)"/>
<path d="M0 0 C19.05547127 5.84739629 33.95326381 18.22510529 43.625 35.65185547 C48.62050567 45.72836446 52.16990582 57.22426556 50.91015625 68.56201172 C49.41015625 71.62451172 49.41015625 71.62451172 46.91015625 73.56201172 C41.58179804 74.40778286 41.58179804 74.40778286 38.91015625 73.56201172 C33.62351676 69.59115806 32.96348168 65.78655556 32.03515625 59.62451172 C29.84475698 47.4586155 25.45654546 35.66047584 15.5078125 27.62060547 C4.72896182 20.72812005 -6.4768407 17.33571375 -19.0078125 15.43310547 C-22.08984375 14.56201172 -22.08984375 14.56201172 -24.01953125 12.75732422 C-25.26642981 10.19981695 -25.3647674 8.80820718 -25.02734375 5.99951172 C-24.95386719 5.23509766 -24.88039063 4.47068359 -24.8046875 3.68310547 C-21.70467493 -5.51529249 -7.21381659 -1.98172265 0 0 Z " fill="#61F6DD" transform="translate(368.08984375,131.43798828125)"/>
<path d="M0 0 C2.4375 1.5 2.4375 1.5 4 4 C4.83027729 8.98166371 4.53703647 11.79281173 1.625 15.9375 C-8.79195906 28.38405437 -23.59347705 38.73300181 -40 41 C-56.96240836 41.95883635 -72.51183502 40.61521258 -87 31 C-91.01878142 25.93907105 -91.01878142 25.93907105 -90.9375 21.875 C-89.33397683 16.95752896 -89.33397683 16.95752896 -87 15 C-80.93518365 14.53046583 -76.72343276 15.52011198 -71.1875 17.875 C-57.84838314 23.16523567 -45.42062305 24.83074922 -31.72265625 19.3515625 C-23.55337543 15.29622367 -17.00843644 9.3542829 -10.77734375 2.78515625 C-7.43780641 -0.56906038 -4.62126738 -0.39838512 0 0 Z " fill="#61F6DD" transform="translate(400,308)"/>
<path d="M0 0 C2.69990662 1.79993774 4.5418865 3.083773 6 6 C6.64946897 12.44056733 4.07346929 15.34133916 0.26953125 20.2578125 C-9.59393066 32.17545495 -21.56726591 40.27682741 -37 43 C-52.73769882 44.05805044 -67.92190974 43.84283942 -81 34 C-82.6007299 30.7985402 -82.35083226 27.48080635 -82 24 C-81.0625 21.5 -81.0625 21.5 -79 20 C-71.93340751 19.07323377 -66.16590555 21.00181657 -59.421875 23.03515625 C-48.26019864 26.18234125 -37.73876563 25.14770685 -27.4765625 19.609375 C-20.44442011 15.03959162 -14.68721075 8.96719764 -9.375 2.53125 C-6.61678393 -0.54039972 -3.9547263 -0.38771827 0 0 Z " fill="#61F6DD" transform="translate(174,128)"/>
<path d="M0 0 C7.84851362 2.16091376 14.22784389 5.54881089 20.77734375 10.33984375 C21.43476563 10.81292969 22.0921875 11.28601563 22.76953125 11.7734375 C32.01980797 19.02976568 38.83147496 30.61909364 40.2578125 42.26171875 C40.74309012 52.08236149 40.74309012 52.08236149 37.52734375 56.26953125 C34.62162839 58.45707264 33.68059719 58.98201559 30.15234375 58.52734375 C26.81993705 57.91391565 26.04713772 57.67055894 23.83984375 54.96484375 C22.95808464 51.95648915 22.39561976 49.17172751 21.90234375 46.08984375 C20.5595484 37.87641217 16.81887457 29.25319984 10.1015625 24.0390625 C2.75509615 19.04817654 -5.40662119 17.27563035 -14.09375 16.0625 C-16.92337462 15.10198522 -17.7871106 13.92845671 -19.22265625 11.33984375 C-19.63576937 7.49413615 -18.69256948 4.19423143 -16.84765625 0.83984375 C-11.55810827 -2.1827551 -5.77941435 -1.18390427 0 0 Z " fill="#61F6DD" transform="translate(252.22265625,123.66015625)"/>
<path d="M0 0 C10.14994791 7.21266395 18.51729151 18.10271616 21.578125 30.3046875 C23.04537571 39.67878928 22.58744382 48.60590657 19.75 57.625 C19.54552246 58.27509033 19.34104492 58.92518066 19.13037109 59.5949707 C17.22646014 65.14048912 14.93520611 69.70986259 10 73 C6.25021637 72.86364423 3.72993507 72.43796104 0.5 70.5 C-1.46858911 67.21901815 -1.26811634 65.27181879 -0.6953125 61.5546875 C0.08672427 58.68136138 1.2405913 56.22897869 2.5625 53.5625 C5.86101986 46.70731524 5.96974648 40.8583373 4 33.5625 C0.88343135 25.24672679 -4.98947377 18.30064178 -12 13 C-13.3899408 10.2201184 -13.18488204 8.0813674 -13 5 C-12.14874336 2.44623008 -11.431788 1.33583511 -9.3125 -0.3125 C-5.83311793 -1.34691089 -3.31869383 -1.37542824 0 0 Z " fill="#61F6DD" transform="translate(195,216)"/>
</svg>
